# xmcd
#
# Track frame offsets: 
#        150
#        10626
#        23173
#        33101
#        40775
#        49934
#        63523
#        70343
#        83887
#        92345
#        103333
#        112831
#        127525
#        138843
#        148184
#        158328
#        168746
#        178068
#        184310
#        196469
#
# Disc length: 2724 seconds
#
# Revision: 0
# Processed by: cddbd v1.5.2PL0 Copyright (c) Steve Scherf et al.
# Submitted via: ExactAudioCopy v0.95b4
#
DISCID=040aa214
DTITLE=Various Artist - Country Hits Vol. 2
DYEAR=2002
DGENRE=Country
TTITLE0=Merle Haggard - Ida Red
TTITLE1=Kenny Rogers - Love Woman
TTITLE2=Johnny Cash - Hey Porter
TTITLE3=Carl Perkins - Glad All Over
TTITLE4=Bill Monroe - Prison Song
TTITLE5=Carl Perkins - Every Road
TTITLE6=Waylon Jennings - It's so Easy
TTITLE7=Ferlin Haskin - Baby
TTITLE8=Wajlon Jennings - Abilene
TTITLE9=Patsy Cline - Hidin' out
TTITLE10=Bill Monroe - I Saw The Light
TTITLE11=David Fritzell - Country Music Affair
TTITLE12=Johnny Lee - Candy Store
TTITLE13=Jim Reeves - Dear Hearts And Gentle People
TTITLE14=Johnny Paycheck - A - 11
TTITLE15=Merle Haggard - Corrinna Corrinna
TTITLE16=Conway Twitty - Ever Since You Went Away
TTITLE17=George Jones - Chicken Reel
TTITLE18=Don Williams - Some Broken Hearts Never Mend
TTITLE19=Tammy Wynette - When The Grass Grows Over Me
EXTD=
EXTT0=
EXTT1=
EXTT2=
EXTT3=
EXTT4=
EXTT5=
EXTT6=
EXTT7=
EXTT8=
EXTT9=
EXTT10=
EXTT11=
EXTT12=
EXTT13=
EXTT14=
EXTT15=
EXTT16=
EXTT17=
EXTT18=
EXTT19=
PLAYORDER=
